<svg xmlns="http://www.w3.org/2000/svg" xmlns:xlink="http://www.w3.org/1999/xlink" width="128pt" height="128pt" viewBox="0 0 128 128" version="1.1">
  <g id="surface1">
    <path style=" stroke:none;fill-rule:nonzero;fill:rgb(23.921569%,46.666667%,73.72549%);fill-opacity:1;" d="M 2.039062 127.265625 L 63.507812 64.664062 C 63.859375 64.246094 64 63.683594 63.648438 63.195312 C 59.921875 58.019531 53.027344 57.109375 50.496094 53.613281 C 42.902344 43.332031 41.003906 37.457031 37.695312 37.804688 C 37.484375 37.804688 37.273438 37.945312 37.132812 38.085938 L 14.910156 60.746094 C 2.179688 73.757812 0.351562 102.433594 0 126.425781 C 0 127.546875 1.335938 128.035156 2.039062 127.265625 Z M 2.039062 127.265625 "/>
    <path style=" stroke:none;fill-rule:evenodd;fill:rgb(27.843137%,69.411765%,89.411765%);fill-opacity:1;" d="M 14.910156 60.746094 C 21.871094 53.613281 35.65625 50.324219 64.140625 63.964844 C 54.222656 41.863281 41.144531 34.097656 37.34375 37.875 Z M 14.910156 60.746094 "/>
    <path style=" stroke:none;fill-rule:nonzero;fill:rgb(2.745098%,67.843137%,29.411765%);fill-opacity:1;" d="M 127.789062 125.726562 L 64.84375 64.664062 C 64.421875 64.316406 63.859375 64.175781 63.367188 64.523438 C 58.164062 68.230469 57.25 75.085938 53.730469 77.605469 C 43.324219 85.160156 37.484375 87.046875 37.835938 90.265625 C 37.835938 90.472656 37.976562 90.683594 38.117188 90.824219 L 60.835938 112.925781 C 73.917969 125.65625 102.75 127.476562 126.875 127.753906 C 128.070312 127.824219 128.5625 126.496094 127.789062 125.726562 Z M 127.789062 125.726562 "/>
    <path style=" stroke:none;fill-rule:evenodd;fill:rgb(31.372549%,72.54902%,33.72549%);fill-opacity:1;" d="M 60.90625 112.925781 C 53.730469 106.003906 50.425781 92.292969 64.140625 63.964844 C 41.847656 73.898438 34.039062 86.90625 37.90625 90.613281 Z M 60.90625 112.925781 "/>
    <path style=" stroke:none;fill-rule:nonzero;fill:rgb(18.039216%,75.294118%,80.784314%);fill-opacity:1;" d="M 126.242188 0.664062 L 64.84375 63.335938 C 64.492188 63.753906 64.351562 64.316406 64.703125 64.804688 C 68.429688 69.980469 75.324219 70.890625 77.855469 74.386719 C 85.449219 84.738281 87.347656 90.542969 90.585938 90.195312 C 90.796875 90.195312 91.007812 90.054688 91.148438 89.914062 L 113.371094 67.324219 C 126.171875 54.3125 128 25.636719 128.28125 1.644531 C 128.351562 0.453125 127.015625 -0.105469 126.242188 0.664062 Z M 126.242188 0.664062 "/>
    <path style=" stroke:none;fill-rule:evenodd;fill:rgb(34.901961%,78.039216%,85.490196%);fill-opacity:1;" d="M 113.371094 67.183594 C 106.410156 74.316406 92.625 77.605469 64.140625 63.964844 C 74.128906 86.136719 87.207031 93.902344 90.9375 90.054688 Z M 113.371094 67.183594 "/>
    <path style=" stroke:none;fill-rule:nonzero;fill:rgb(89.019608%,23.921569%,14.901961%);fill-opacity:1;" d="M 0.492188 2.203125 L 63.4375 63.335938 C 63.859375 63.683594 64.421875 63.824219 64.914062 63.476562 C 70.117188 59.769531 71.03125 52.914062 74.550781 50.394531 C 84.957031 42.839844 90.796875 40.953125 90.445312 37.734375 C 90.445312 37.527344 90.304688 37.316406 90.164062 37.175781 L 67.375 15.003906 C 54.292969 2.34375 25.53125 0.523438 1.335938 0.175781 C 0.28125 0.175781 -0.28125 1.503906 0.492188 2.203125 Z M 0.492188 2.203125 "/>
    <path style=" stroke:none;fill-rule:evenodd;fill:rgb(95.294118%,45.882353%,34.901961%);fill-opacity:1;" d="M 67.375 15.003906 C 74.550781 21.929688 77.855469 35.636719 64.140625 63.964844 C 86.433594 54.03125 94.242188 41.023438 90.375 37.316406 Z M 67.375 15.003906 "/>
    <path style=" stroke:none;fill-rule:nonzero;fill:rgb(29.411765%,28.627451%,28.627451%);fill-opacity:1;" d="M 66.882812 63.964844 C 66.882812 65.472656 65.65625 66.691406 64.140625 66.691406 C 62.625 66.691406 61.398438 65.472656 61.398438 63.964844 C 61.398438 62.457031 62.625 61.238281 64.140625 61.238281 C 65.65625 61.238281 66.882812 62.457031 66.882812 63.964844 Z M 66.882812 63.964844 "/>
  </g>
</svg>